<svg width="169" height="24" viewBox="0 0 169 24" fill="none" xmlns="http://www.w3.org/2000/svg">
<path d="M0.672 18V17.76H0.864C1.36 17.76 1.752 17.696 2.04 17.568C2.328 17.424 2.528 17.192 2.64 16.872C2.768 16.552 2.832 16.112 2.832 15.552V7.536C2.832 6.992 2.768 6.568 2.64 6.264C2.528 5.944 2.336 5.72 2.064 5.592C1.792 5.448 1.408 5.376 0.912 5.376H0.792V5.136H5.064V7.392H5.112C5.336 6.64 5.648 6.088 6.048 5.736C6.448 5.384 6.88 5.16 7.344 5.064C7.824 4.952 8.264 4.896 8.664 4.896C10.088 4.896 11.144 5.272 11.832 6.024C12.536 6.76 12.888 7.952 12.888 9.6V15.552C12.888 16.112 12.944 16.552 13.056 16.872C13.168 17.192 13.352 17.424 13.608 17.568C13.88 17.696 14.24 17.76 14.688 17.76H14.808V18H10.632V8.784C10.632 7.744 10.44 6.896 10.056 6.24C9.672 5.584 9.008 5.256 8.064 5.256C7.312 5.256 6.72 5.456 6.288 5.856C5.856 6.256 5.544 6.776 5.352 7.416C5.176 8.04 5.088 8.696 5.088 9.384V15.552C5.088 16.112 5.144 16.552 5.256 16.872C5.384 17.192 5.584 17.424 5.856 17.568C6.144 17.696 6.528 17.76 7.008 17.76H7.128V18H0.672ZM22.4768 18.24C20.6848 18.24 19.2848 17.664 18.2768 16.512C17.2848 15.36 16.7888 13.744 16.7888 11.664C16.7888 9.424 17.2528 7.736 18.1808 6.6C19.1088 5.464 20.4208 4.896 22.1168 4.896C23.6688 4.896 24.8848 5.376 25.7648 6.336C26.6608 7.296 27.1088 8.728 27.1088 10.632V11.208H19.1168C19.1328 12.84 19.2528 14.152 19.4768 15.144C19.7008 16.136 20.0608 16.864 20.5568 17.328C21.0688 17.776 21.7328 18 22.5488 18C23.1568 18 23.6928 17.888 24.1568 17.664C24.6368 17.44 25.0368 17.112 25.3568 16.68C25.6768 16.232 25.8928 15.688 26.0048 15.048C26.1968 15.08 26.3408 15.176 26.4368 15.336C26.5328 15.496 26.5808 15.664 26.5808 15.84C26.5808 16.16 26.4288 16.512 26.1248 16.896C25.8208 17.264 25.3648 17.584 24.7568 17.856C24.1648 18.112 23.4048 18.24 22.4768 18.24ZM24.6848 10.968C24.6848 9.56 24.5968 8.432 24.4208 7.584C24.2448 6.736 23.9648 6.12 23.5808 5.736C23.1968 5.336 22.6928 5.136 22.0688 5.136C21.4128 5.136 20.8768 5.336 20.4608 5.736C20.0448 6.12 19.7328 6.736 19.5248 7.584C19.3168 8.432 19.1808 9.56 19.1168 10.968H24.6848ZM30.0165 6.648C29.9365 6.328 29.8245 6.08 29.6805 5.904C29.5525 5.712 29.4005 5.576 29.2245 5.496C29.0485 5.416 28.8405 5.376 28.6005 5.376H28.3365V5.136H34.2645V5.376H33.7365C33.1925 5.376 32.8085 5.448 32.5845 5.592C32.3765 5.72 32.2725 5.944 32.2725 6.264C32.2725 6.408 32.2885 6.576 32.3205 6.768C32.3685 6.96 32.4245 7.176 32.4885 7.416L34.1205 13.368C34.2325 13.768 34.3365 14.168 34.4325 14.568C34.5445 14.968 34.6565 15.368 34.7685 15.768C34.8805 16.152 34.9925 16.544 35.1045 16.944H35.1525C35.2645 16.528 35.3685 16.12 35.4645 15.72C35.5605 15.32 35.6565 14.92 35.7525 14.52C35.8645 14.12 35.9765 13.712 36.0885 13.296L38.2005 5.208H39.7365L42.4485 13.416C42.5605 13.736 42.6645 14.056 42.7605 14.376C42.8725 14.68 42.9765 14.984 43.0725 15.288C43.1845 15.592 43.2885 15.904 43.3845 16.224C43.4965 16.528 43.6005 16.84 43.6965 17.16H43.7445C43.8565 16.76 43.9605 16.36 44.0565 15.96C44.1525 15.56 44.2485 15.16 44.3445 14.76C44.4565 14.36 44.5605 13.96 44.6565 13.56L46.1925 7.56C46.2565 7.304 46.3045 7.08 46.3365 6.888C46.3845 6.68 46.4085 6.496 46.4085 6.336C46.4085 5.968 46.2805 5.72 46.0245 5.592C45.7685 5.448 45.3205 5.376 44.6805 5.376H43.8405V5.136H48.9765V5.376H48.3525C48.0485 5.376 47.7765 5.432 47.5365 5.544C47.3125 5.656 47.1205 5.848 46.9605 6.12C46.8005 6.392 46.6565 6.768 46.5285 7.248L43.7685 18H41.8725L38.1045 6.6L35.1285 18H33.3285L30.0165 6.648ZM49.7758 18V17.76H50.5198C50.8238 17.76 51.0878 17.72 51.3118 17.64C51.5358 17.544 51.7118 17.384 51.8398 17.16C51.9678 16.936 52.0318 16.616 52.0318 16.2V2.688C52.0318 2.256 51.9678 1.928 51.8398 1.704C51.7118 1.48 51.5358 1.328 51.3118 1.248C51.0878 1.152 50.8238 1.104 50.5198 1.104H49.7758V0.863999H62.5918L62.7358 5.208H62.4958L62.4478 4.392C62.3838 3.576 62.2238 2.928 61.9678 2.448C61.7118 1.968 61.3198 1.624 60.7918 1.416C60.2798 1.208 59.5998 1.104 58.7518 1.104H55.3198V9.12H61.1278V9.36H55.3198V16.128C55.3198 16.56 55.3758 16.896 55.4878 17.136C55.5998 17.36 55.7678 17.52 55.9918 17.616C56.2318 17.712 56.5038 17.76 56.8078 17.76H57.8638V18H49.7758ZM64.1368 18V17.76H64.4008C64.7208 17.76 65.0168 17.712 65.2888 17.616C65.5608 17.52 65.7768 17.352 65.9368 17.112C66.1128 16.872 66.2008 16.528 66.2008 16.08V6.984C66.2008 6.552 66.1128 6.224 65.9368 6C65.7768 5.76 65.5608 5.6 65.2888 5.52C65.0168 5.424 64.7208 5.376 64.4008 5.376H64.3048V5.136H69.2968V7.32H69.3448C69.5048 6.84 69.7128 6.416 69.9688 6.048C70.2408 5.68 70.6008 5.392 71.0488 5.184C71.4968 4.976 72.0488 4.872 72.7048 4.872C73.5528 4.872 74.2008 5.048 74.6488 5.4C75.1128 5.736 75.3448 6.216 75.3448 6.84C75.3448 7.448 75.1128 7.936 74.6488 8.304C74.1848 8.656 73.5048 8.832 72.6088 8.832C72.6088 8.064 72.5448 7.464 72.4168 7.032C72.2888 6.6 72.1128 6.296 71.8888 6.12C71.6808 5.944 71.4248 5.856 71.1208 5.856C70.8008 5.856 70.5208 5.96 70.2808 6.168C70.0568 6.36 69.8728 6.648 69.7288 7.032C69.5848 7.416 69.4808 7.864 69.4168 8.376C69.3528 8.888 69.3208 9.464 69.3208 10.104V16.056C69.3208 16.504 69.4008 16.856 69.5608 17.112C69.7208 17.352 69.9368 17.52 70.2088 17.616C70.4968 17.712 70.8008 17.76 71.1208 17.76H71.6968V18H64.1368ZM80.2504 18.24C79.4344 18.24 78.7384 18.096 78.1624 17.808C77.5864 17.504 77.1384 17.08 76.8184 16.536C76.5144 15.976 76.3624 15.32 76.3624 14.568C76.3624 13.336 76.8104 12.44 77.7064 11.88C78.6024 11.304 79.9544 10.984 81.7624 10.92L83.7544 10.848V8.28C83.7544 7.496 83.7064 6.872 83.6104 6.408C83.5144 5.944 83.3384 5.608 83.0824 5.4C82.8264 5.192 82.4664 5.088 82.0024 5.088C81.5064 5.088 81.1224 5.208 80.8504 5.448C80.5784 5.688 80.3944 6.08 80.2984 6.624C80.2024 7.168 80.1544 7.896 80.1544 8.808C79.2264 8.808 78.5304 8.688 78.0664 8.448C77.6024 8.208 77.3704 7.808 77.3704 7.248C77.3704 6.672 77.5784 6.208 77.9944 5.856C78.4264 5.504 79.0024 5.248 79.7224 5.088C80.4424 4.928 81.2264 4.848 82.0744 4.848C83.6744 4.848 84.8744 5.16 85.6744 5.784C86.4744 6.392 86.8744 7.448 86.8744 8.952V16.128C86.8744 16.544 86.9144 16.872 86.9944 17.112C87.0904 17.336 87.2504 17.504 87.4744 17.616C87.6984 17.712 87.9864 17.76 88.3384 17.76H88.4104V18H83.8504V15.528H83.8024C83.6104 16.2 83.3384 16.736 82.9864 17.136C82.6344 17.52 82.2264 17.8 81.7624 17.976C81.2984 18.152 80.7944 18.24 80.2504 18.24ZM81.1864 17.688C81.6984 17.688 82.1464 17.52 82.5304 17.184C82.9144 16.848 83.2104 16.416 83.4184 15.888C83.6424 15.344 83.7544 14.768 83.7544 14.16V11.088L82.5064 11.16C81.7544 11.192 81.1624 11.328 80.7304 11.568C80.3144 11.808 80.0104 12.176 79.8184 12.672C79.6424 13.168 79.5544 13.816 79.5544 14.616C79.5544 15.336 79.6104 15.928 79.7224 16.392C79.8504 16.84 80.0344 17.168 80.2744 17.376C80.5144 17.584 80.8184 17.688 81.1864 17.688ZM94.8894 23.76C93.0334 23.76 91.6734 23.488 90.8094 22.944C89.9614 22.416 89.5374 21.688 89.5374 20.76C89.5374 20.264 89.6654 19.824 89.9214 19.44C90.1934 19.072 90.6174 18.776 91.1934 18.552C91.7694 18.328 92.5294 18.2 93.4734 18.168C92.6894 18.008 92.0894 17.696 91.6734 17.232C91.2574 16.768 91.0494 16.24 91.0494 15.648C91.0494 15.072 91.2494 14.576 91.6494 14.16C92.0494 13.728 92.6254 13.384 93.3774 13.128C92.5294 12.856 91.8574 12.392 91.3614 11.736C90.8814 11.08 90.6414 10.264 90.6414 9.288C90.6414 7.896 91.0334 6.808 91.8174 6.024C92.6174 5.24 93.8334 4.848 95.4654 4.848C96.0734 4.848 96.6254 4.928 97.1214 5.088C97.6334 5.248 98.0814 5.472 98.4654 5.76C98.7054 5.456 98.9374 5.2 99.1614 4.992C99.4014 4.768 99.6574 4.6 99.9294 4.488C100.217 4.36 100.513 4.296 100.817 4.296C101.313 4.296 101.689 4.424 101.945 4.68C102.201 4.92 102.329 5.232 102.329 5.616C102.329 5.936 102.217 6.232 101.993 6.504C101.769 6.76 101.369 6.888 100.793 6.888C100.793 6.408 100.697 6.048 100.505 5.808C100.313 5.568 100.041 5.448 99.6894 5.448C99.4974 5.448 99.3214 5.488 99.1614 5.568C99.0014 5.632 98.8334 5.744 98.6574 5.904C99.1214 6.304 99.4814 6.792 99.7374 7.368C99.9934 7.928 100.121 8.56 100.121 9.264C100.121 10.464 99.7454 11.464 98.9934 12.264C98.2414 13.048 97.0654 13.44 95.4654 13.44C95.1454 13.44 94.8334 13.424 94.5294 13.392C94.2254 13.344 93.9294 13.28 93.6414 13.2C93.3054 13.36 93.0734 13.544 92.9454 13.752C92.8334 13.944 92.7774 14.16 92.7774 14.4C92.7774 14.768 92.9134 15.048 93.1854 15.24C93.4574 15.416 93.8734 15.504 94.4334 15.504H97.2654C98.2894 15.504 99.1214 15.656 99.7614 15.96C100.401 16.248 100.873 16.664 101.177 17.208C101.481 17.752 101.633 18.392 101.633 19.128C101.633 20.568 101.081 21.696 99.9774 22.512C98.8894 23.344 97.1934 23.76 94.8894 23.76ZM95.1534 23.52C96.0334 23.52 96.7854 23.408 97.4094 23.184C98.0334 22.976 98.5054 22.648 98.8254 22.2C99.1614 21.752 99.3294 21.176 99.3294 20.472C99.3294 19.752 99.1374 19.208 98.7534 18.84C98.3694 18.472 97.7694 18.288 96.9534 18.288H94.4574C93.9294 18.288 93.4814 18.368 93.1134 18.528C92.7454 18.704 92.4574 18.976 92.2494 19.344C92.0414 19.728 91.9374 20.208 91.9374 20.784C91.9374 21.408 92.0574 21.92 92.2974 22.32C92.5534 22.72 92.9134 23.016 93.3774 23.208C93.8574 23.416 94.4494 23.52 95.1534 23.52ZM95.3934 13.2C95.8574 13.2 96.2174 13.072 96.4734 12.816C96.7454 12.544 96.9374 12.12 97.0494 11.544C97.1614 10.968 97.2174 10.208 97.2174 9.264C97.2174 8.256 97.1614 7.448 97.0494 6.84C96.9374 6.232 96.7454 5.792 96.4734 5.52C96.2014 5.232 95.8334 5.088 95.3694 5.088C94.9374 5.088 94.5774 5.232 94.2894 5.52C94.0174 5.808 93.8254 6.264 93.7134 6.888C93.6014 7.496 93.5454 8.304 93.5454 9.312C93.5454 10.24 93.6014 10.992 93.7134 11.568C93.8414 12.144 94.0414 12.56 94.3134 12.816C94.5854 13.072 94.9454 13.2 95.3934 13.2ZM103.02 18V17.76H103.284C103.604 17.76 103.9 17.712 104.172 17.616C104.444 17.52 104.66 17.352 104.82 17.112C104.996 16.872 105.084 16.528 105.084 16.08V6.984C105.084 6.552 104.996 6.224 104.82 6C104.66 5.76 104.444 5.6 104.172 5.52C103.9 5.424 103.604 5.376 103.284 5.376H103.188V5.136H108.18V7.32H108.228C108.388 6.84 108.596 6.416 108.852 6.048C109.124 5.68 109.484 5.392 109.932 5.184C110.38 4.976 110.932 4.872 111.588 4.872C112.436 4.872 113.084 5.048 113.532 5.4C113.996 5.736 114.228 6.216 114.228 6.84C114.228 7.448 113.996 7.936 113.532 8.304C113.068 8.656 112.388 8.832 111.492 8.832C111.492 8.064 111.428 7.464 111.3 7.032C111.172 6.6 110.996 6.296 110.772 6.12C110.564 5.944 110.308 5.856 110.004 5.856C109.684 5.856 109.404 5.96 109.164 6.168C108.94 6.36 108.756 6.648 108.612 7.032C108.468 7.416 108.364 7.864 108.3 8.376C108.236 8.888 108.204 9.464 108.204 10.104V16.056C108.204 16.504 108.284 16.856 108.444 17.112C108.604 17.352 108.82 17.52 109.092 17.616C109.38 17.712 109.684 17.76 110.004 17.76H110.58V18H103.02ZM119.133 18.24C118.317 18.24 117.621 18.096 117.045 17.808C116.469 17.504 116.021 17.08 115.701 16.536C115.397 15.976 115.245 15.32 115.245 14.568C115.245 13.336 115.693 12.44 116.589 11.88C117.485 11.304 118.837 10.984 120.645 10.92L122.637 10.848V8.28C122.637 7.496 122.589 6.872 122.493 6.408C122.397 5.944 122.221 5.608 121.965 5.4C121.709 5.192 121.349 5.088 120.885 5.088C120.389 5.088 120.005 5.208 119.733 5.448C119.461 5.688 119.277 6.08 119.181 6.624C119.085 7.168 119.037 7.896 119.037 8.808C118.109 8.808 117.413 8.688 116.949 8.448C116.485 8.208 116.253 7.808 116.253 7.248C116.253 6.672 116.461 6.208 116.877 5.856C117.309 5.504 117.885 5.248 118.605 5.088C119.325 4.928 120.109 4.848 120.957 4.848C122.557 4.848 123.757 5.16 124.557 5.784C125.357 6.392 125.757 7.448 125.757 8.952V16.128C125.757 16.544 125.797 16.872 125.877 17.112C125.973 17.336 126.133 17.504 126.357 17.616C126.581 17.712 126.869 17.76 127.221 17.76H127.293V18H122.733V15.528H122.685C122.493 16.2 122.221 16.736 121.869 17.136C121.517 17.52 121.109 17.8 120.645 17.976C120.181 18.152 119.677 18.24 119.133 18.24ZM120.069 17.688C120.581 17.688 121.029 17.52 121.413 17.184C121.797 16.848 122.093 16.416 122.301 15.888C122.525 15.344 122.637 14.768 122.637 14.16V11.088L121.389 11.16C120.637 11.192 120.045 11.328 119.613 11.568C119.197 11.808 118.893 12.176 118.701 12.672C118.525 13.168 118.437 13.816 118.437 14.616C118.437 15.336 118.493 15.928 118.605 16.392C118.733 16.84 118.917 17.168 119.157 17.376C119.397 17.584 119.701 17.688 120.069 17.688ZM128.66 18V17.76H128.924C129.26 17.76 129.564 17.712 129.836 17.616C130.108 17.52 130.324 17.344 130.484 17.088C130.644 16.816 130.724 16.44 130.724 15.96V7.104C130.724 6.624 130.636 6.264 130.46 6.024C130.3 5.768 130.084 5.6 129.812 5.52C129.556 5.424 129.26 5.376 128.924 5.376H128.708V5.136H133.82V7.344H133.868C134.076 6.608 134.364 6.064 134.732 5.712C135.1 5.36 135.516 5.128 135.98 5.016C136.46 4.904 136.916 4.848 137.348 4.848C138.772 4.848 139.828 5.216 140.516 5.952C141.204 6.688 141.548 7.872 141.548 9.504V15.864C141.548 16.392 141.604 16.792 141.716 17.064C141.844 17.32 142.028 17.504 142.268 17.616C142.524 17.712 142.844 17.76 143.228 17.76H143.324V18H138.428V8.712C138.428 7.672 138.268 6.864 137.948 6.288C137.644 5.712 137.108 5.424 136.34 5.424C135.7 5.424 135.196 5.624 134.828 6.024C134.476 6.408 134.22 6.936 134.06 7.608C133.916 8.264 133.844 9.008 133.844 9.84V15.96C133.844 16.44 133.924 16.816 134.084 17.088C134.244 17.344 134.46 17.52 134.732 17.616C135.004 17.712 135.3 17.76 135.62 17.76H135.86V18H128.66ZM150.985 18.24C149.833 18.24 148.817 18.024 147.937 17.592C147.073 17.16 146.393 16.456 145.897 15.48C145.417 14.504 145.177 13.2 145.177 11.568C145.177 9.872 145.425 8.536 145.921 7.56C146.417 6.584 147.097 5.888 147.961 5.472C148.825 5.056 149.809 4.848 150.913 4.848C151.777 4.848 152.545 4.952 153.217 5.16C153.889 5.352 154.417 5.64 154.801 6.024C155.201 6.408 155.401 6.872 155.401 7.416C155.401 7.736 155.313 8.032 155.137 8.304C154.977 8.576 154.697 8.792 154.297 8.952C153.897 9.112 153.353 9.192 152.665 9.192C152.665 8.184 152.609 7.384 152.497 6.792C152.401 6.184 152.217 5.752 151.945 5.496C151.673 5.224 151.297 5.088 150.817 5.088C150.273 5.088 149.817 5.28 149.449 5.664C149.081 6.048 148.801 6.712 148.609 7.656C148.433 8.584 148.345 9.888 148.345 11.568C148.345 13.12 148.449 14.368 148.657 15.312C148.881 16.256 149.225 16.936 149.689 17.352C150.169 17.768 150.793 17.976 151.561 17.976C152.105 17.976 152.593 17.872 153.025 17.664C153.473 17.456 153.849 17.104 154.153 16.608C154.457 16.112 154.673 15.448 154.801 14.616C155.025 14.68 155.193 14.808 155.305 15C155.433 15.176 155.497 15.4 155.497 15.672C155.497 16.056 155.337 16.448 155.017 16.848C154.697 17.248 154.201 17.584 153.529 17.856C152.873 18.112 152.025 18.24 150.985 18.24ZM163.601 18.24C161.633 18.24 160.121 17.664 159.065 16.512C158.025 15.344 157.505 13.72 157.505 11.64C157.505 9.4 158.001 7.712 158.993 6.576C160.001 5.424 161.409 4.848 163.217 4.848C164.897 4.848 166.209 5.336 167.153 6.312C168.113 7.272 168.593 8.704 168.593 10.608V11.184H160.673C160.689 12.816 160.801 14.128 161.009 15.12C161.233 16.112 161.585 16.84 162.065 17.304C162.561 17.752 163.193 17.976 163.961 17.976C164.537 17.976 165.057 17.864 165.521 17.64C165.985 17.4 166.369 17.032 166.673 16.536C166.993 16.04 167.209 15.4 167.321 14.616C167.593 14.664 167.785 14.784 167.897 14.976C168.025 15.168 168.089 15.384 168.089 15.624C168.089 16.024 167.921 16.424 167.585 16.824C167.249 17.224 166.753 17.56 166.097 17.832C165.441 18.104 164.609 18.24 163.601 18.24ZM165.425 10.944C165.425 9.52 165.353 8.384 165.209 7.536C165.081 6.672 164.849 6.048 164.513 5.664C164.193 5.28 163.753 5.088 163.193 5.088C162.633 5.088 162.169 5.28 161.801 5.664C161.433 6.048 161.161 6.672 160.985 7.536C160.825 8.384 160.721 9.52 160.673 10.944H165.425Z" fill="white"/>
</svg>
