<svg width="194" height="29" viewBox="0 0 194 29" fill="none" xmlns="http://www.w3.org/2000/svg">
<path d="M4.782 8.428V19.166C4.782 19.4087 4.82867 19.5907 4.922 19.712C5.01533 19.8333 5.15067 19.9173 5.328 19.964L5.972 20.104C6.252 20.1973 6.392 20.3467 6.392 20.552C6.392 20.8507 6.18667 21 5.776 21H0.778C0.582 21 0.437333 20.9627 0.344 20.888C0.250667 20.804 0.204 20.6967 0.204 20.566C0.204 20.454 0.236667 20.3653 0.302 20.3C0.376667 20.2253 0.493333 20.1647 0.652 20.118L1.338 19.964C1.51533 19.9173 1.646 19.8333 1.73 19.712C1.82333 19.5907 1.87 19.4133 1.87 19.18V10.346C1.87 10.15 1.83733 10.01 1.772 9.926C1.70667 9.83267 1.59933 9.77667 1.45 9.758L0.484 9.716C0.334667 9.69733 0.227333 9.65533 0.162 9.59C0.0966667 9.52467 0.0640001 9.44533 0.0640001 9.352C0.0640001 9.23067 0.101333 9.13733 0.176 9.072C0.250667 8.99733 0.386 8.92267 0.582 8.848L2.99 8.022C3.26067 7.91933 3.48 7.84933 3.648 7.812C3.82533 7.76533 3.984 7.742 4.124 7.742C4.348 7.742 4.51133 7.80267 4.614 7.924C4.726 8.04533 4.782 8.21333 4.782 8.428ZM4.404 11.368L3.9 10.85L4.488 10.318C5.58 9.35667 6.518 8.67067 7.302 8.26C8.086 7.84933 8.83733 7.644 9.556 7.644C10.6667 7.644 11.5253 8.008 12.132 8.736C12.7387 9.464 13.112 10.458 13.252 11.718L14.12 19.11C14.148 19.3713 14.204 19.5673 14.288 19.698C14.3813 19.8287 14.526 19.922 14.722 19.978L15.324 20.118C15.4733 20.1553 15.5853 20.2113 15.66 20.286C15.7347 20.3607 15.772 20.454 15.772 20.566C15.772 20.6967 15.7253 20.804 15.632 20.888C15.5387 20.9627 15.3893 21 15.184 21H10.13C9.72867 21 9.528 20.8507 9.528 20.552C9.528 20.3467 9.66333 20.1973 9.934 20.104L10.62 19.964C10.816 19.9173 10.9653 19.8287 11.068 19.698C11.1707 19.558 11.208 19.362 11.18 19.11L10.34 12.152C10.228 11.228 9.99 10.5373 9.626 10.08C9.262 9.61333 8.72533 9.38 8.016 9.38C7.57733 9.38 7.11067 9.50133 6.616 9.744C6.12133 9.98667 5.58 10.3553 4.992 10.85L4.404 11.368ZM29.2798 12.88C29.2798 13.2813 29.1631 13.5893 28.9298 13.804C28.6965 14.0093 28.3511 14.112 27.8938 14.112H18.9758V13.272H25.6538C26.0925 13.272 26.3118 13.0807 26.3118 12.698C26.3118 11.4193 26.0411 10.43 25.4998 9.73C24.9678 9.02067 24.2585 8.666 23.3718 8.666C22.6625 8.666 22.0371 8.87133 21.4958 9.282C20.9638 9.68333 20.5485 10.2573 20.2498 11.004C19.9511 11.7413 19.8018 12.6187 19.8018 13.636C19.8018 15.4933 20.2451 16.9073 21.1318 17.878C22.0185 18.8393 23.1758 19.32 24.6038 19.32C25.5278 19.32 26.3258 19.1053 26.9978 18.676C27.6791 18.2467 28.1551 17.6773 28.4258 16.968C28.5378 16.828 28.6311 16.73 28.7058 16.674C28.7805 16.618 28.8598 16.59 28.9438 16.59C29.0651 16.59 29.1538 16.6413 29.2098 16.744C29.2658 16.8467 29.2891 16.968 29.2798 17.108C29.2238 17.8827 28.9485 18.592 28.4538 19.236C27.9591 19.8707 27.2965 20.3793 26.4658 20.762C25.6445 21.1353 24.7111 21.322 23.6658 21.322C22.3685 21.322 21.2251 21.0513 20.2358 20.51C19.2558 19.9593 18.4858 19.1893 17.9258 18.2C17.3751 17.2107 17.0998 16.0487 17.0998 14.714C17.0998 13.3513 17.3705 12.138 17.9118 11.074C18.4531 10.01 19.2185 9.17467 20.2078 8.568C21.2065 7.952 22.3871 7.644 23.7498 7.644C24.8791 7.644 25.8591 7.868 26.6898 8.316C27.5205 8.75467 28.1598 9.37067 28.6078 10.164C29.0558 10.948 29.2798 11.8533 29.2798 12.88ZM37.7833 21.154H36.7893C36.5746 21.154 36.3833 21.1027 36.2153 21C36.0566 20.888 35.9306 20.7013 35.8373 20.44L32.2253 9.814C32.1133 9.478 32.0013 9.254 31.8893 9.142C31.7773 9.03 31.6373 8.96 31.4693 8.932L30.9373 8.82C30.7693 8.77333 30.6526 8.71733 30.5873 8.652C30.5219 8.57733 30.4893 8.47933 30.4893 8.358C30.4893 8.22733 30.5406 8.12467 30.6433 8.05C30.7459 7.966 30.8859 7.924 31.0633 7.924H36.4953C36.6726 7.924 36.8126 7.96133 36.9153 8.036C37.0179 8.11067 37.0693 8.218 37.0693 8.358C37.0693 8.47 37.0319 8.56333 36.9573 8.638C36.8919 8.71267 36.7659 8.76867 36.5793 8.806L35.9773 8.904C35.6133 8.96933 35.3986 9.09533 35.3333 9.282C35.2679 9.45933 35.3239 9.81867 35.5013 10.36L38.4553 19.404L37.8253 19.95L41.2833 9.716L42.2213 10.43L38.7073 20.51C38.6233 20.7527 38.4973 20.9207 38.3293 21.014C38.1613 21.1073 37.9793 21.154 37.7833 21.154ZM46.3373 21.154H45.3573C45.1613 21.154 44.9746 21.098 44.7973 20.986C44.6293 20.874 44.5033 20.692 44.4193 20.44L40.8213 9.716C40.7279 9.42667 40.6299 9.23067 40.5273 9.128C40.4246 9.02533 40.2893 8.96 40.1213 8.932L39.5753 8.82C39.4073 8.77333 39.2906 8.71733 39.2253 8.652C39.1599 8.57733 39.1273 8.47933 39.1273 8.358C39.1273 8.06867 39.3233 7.924 39.7153 7.924H44.8953C45.2686 7.924 45.4553 8.06867 45.4553 8.358C45.4553 8.47933 45.4179 8.57733 45.3433 8.652C45.2779 8.72667 45.1613 8.778 44.9933 8.806L44.3073 8.904C44.0553 8.94133 43.9013 9.058 43.8453 9.254C43.7986 9.45 43.8453 9.78133 43.9853 10.248L46.9673 19.446L46.3373 20.02L49.3893 10.57C49.5759 9.982 49.6366 9.576 49.5713 9.352C49.5059 9.11867 49.2679 8.96933 48.8573 8.904L48.2693 8.806C48.0826 8.76867 47.9519 8.71733 47.8773 8.652C47.8026 8.57733 47.7653 8.47933 47.7653 8.358C47.7653 8.218 47.8166 8.11067 47.9193 8.036C48.0219 7.96133 48.1666 7.924 48.3533 7.924H52.0213C52.1986 7.924 52.3386 7.966 52.4413 8.05C52.5439 8.12467 52.5953 8.22733 52.5953 8.358C52.5953 8.47 52.5626 8.56333 52.4973 8.638C52.4413 8.71267 52.3153 8.77333 52.1193 8.82L51.6293 8.904C51.4426 8.95067 51.2793 9.072 51.1393 9.268C51.0086 9.464 50.8593 9.80933 50.6913 10.304L47.2473 20.496C47.1633 20.748 47.0373 20.9207 46.8693 21.014C46.7013 21.1073 46.5239 21.154 46.3373 21.154Z" fill="black"/>
<path d="M57.1685 2.226C57.1778 1.974 57.2711 1.77333 57.4485 1.624C57.6258 1.47467 57.8871 1.4 58.2325 1.4H68.2005C68.7698 1.4 69.2271 1.32067 69.5725 1.162C69.9271 1.00333 70.2631 0.924 70.5805 0.924C71.1125 0.924 71.4251 1.21333 71.5185 1.792L71.8405 6.286C71.8965 6.58467 71.8638 6.818 71.7425 6.986C71.6211 7.14467 71.4438 7.24267 71.2105 7.28C70.9211 7.308 70.6831 7.252 70.4965 7.112C70.3098 6.96267 70.1418 6.71067 69.9925 6.356L69.7265 5.6C69.5305 4.90933 69.3018 4.35867 69.0405 3.948C68.7791 3.53733 68.4618 3.23867 68.0885 3.052C67.7151 2.86533 67.2531 2.772 66.7025 2.772H64.2805C64.1685 3.17333 64.0191 3.71467 63.8325 4.396C63.6458 5.068 63.4358 5.83333 63.2025 6.692C62.9785 7.54133 62.7405 8.43267 62.4885 9.366C62.2458 10.2993 62.0031 11.228 61.7605 12.152C61.5271 13.0667 61.3078 13.93 61.1025 14.742C60.8971 15.5447 60.7151 16.2493 60.5565 16.856C60.4071 17.4627 60.2998 17.9107 60.2345 18.2C60.1411 18.5267 60.1131 18.7833 60.1505 18.97C60.1878 19.1473 60.3698 19.264 60.6965 19.32L61.7605 19.474C61.9845 19.5113 62.1431 19.5907 62.2365 19.712C62.3391 19.8333 62.3905 19.9827 62.3905 20.16C62.3905 20.4027 62.2971 20.6033 62.1105 20.762C61.9331 20.9207 61.6578 21 61.2845 21H53.6685C53.3231 21 53.0898 20.9347 52.9685 20.804C52.8471 20.664 52.7865 20.4913 52.7865 20.286C52.7865 20.09 52.8518 19.922 52.9825 19.782C53.1131 19.6327 53.2998 19.5207 53.5425 19.446L54.2425 19.264C54.4478 19.1987 54.6111 19.0867 54.7325 18.928C54.8538 18.7693 54.9658 18.5267 55.0685 18.2C55.1805 17.836 55.3205 17.346 55.4885 16.73C55.6565 16.114 55.8431 15.4233 56.0485 14.658C56.2631 13.8927 56.4778 13.09 56.6925 12.25C56.9165 11.41 57.1358 10.5747 57.3505 9.744C57.5651 8.91333 57.7658 8.134 57.9525 7.406C58.1391 6.66867 58.3025 6.02 58.4425 5.46C58.5825 4.9 58.6898 4.47533 58.7645 4.186C58.8485 3.84067 58.8671 3.59333 58.8205 3.444C58.7738 3.28533 58.6431 3.16867 58.4285 3.094L57.7565 2.898C57.5698 2.82333 57.4251 2.73467 57.3225 2.632C57.2198 2.52933 57.1685 2.394 57.1685 2.226ZM60.0245 10.668H64.4205C64.9245 10.668 65.3398 10.5233 65.6665 10.234C65.9931 9.93533 66.2498 9.42667 66.4365 8.708C66.5205 8.53067 66.6231 8.4 66.7445 8.316C66.8658 8.232 67.0105 8.19 67.1785 8.19C67.4118 8.19 67.5891 8.25533 67.7105 8.386C67.8411 8.51667 67.9205 8.69867 67.9485 8.932L68.5365 13.496C68.5925 13.832 68.5458 14.0793 68.3965 14.238C68.2471 14.3967 68.0511 14.4807 67.8085 14.49C67.6125 14.49 67.4491 14.4433 67.3185 14.35C67.1971 14.2473 67.0851 14.1027 66.9825 13.916C66.8145 13.4867 66.6231 13.1367 66.4085 12.866C66.1938 12.586 65.9231 12.3807 65.5965 12.25C65.2791 12.1193 64.8685 12.054 64.3645 12.054H59.6045L60.0245 10.668ZM71.8372 11.466C71.6972 11.3913 71.6225 11.256 71.6132 11.06C71.6039 10.8547 71.6832 10.6027 71.8512 10.304C72.1312 9.772 72.5045 9.31 72.9712 8.918C73.4472 8.51667 73.9885 8.20867 74.5952 7.994C75.2019 7.77 75.8552 7.658 76.5552 7.658C77.1805 7.658 77.6519 7.798 77.9692 8.078C78.2865 8.34867 78.4452 8.75 78.4452 9.282C78.4452 9.646 78.3752 10.052 78.2352 10.5C78.0952 10.948 77.9272 11.4147 77.7312 11.9C77.5445 12.3853 77.3672 12.866 77.1992 13.342C77.0405 13.818 76.9425 14.266 76.9052 14.686L76.6532 14.602C76.9892 13.37 77.3905 12.3153 77.8572 11.438C78.3332 10.5513 78.8419 9.83267 79.3832 9.282C79.9339 8.722 80.4939 8.31133 81.0632 8.05C81.6325 7.78867 82.1785 7.658 82.7012 7.658C83.5319 7.658 84.1619 7.91467 84.5912 8.428C85.0205 8.932 85.2165 9.59933 85.1792 10.43C85.1512 11.13 84.9972 11.732 84.7172 12.236C84.4372 12.7307 84.0825 13.1087 83.6532 13.37C83.2239 13.6313 82.7619 13.762 82.2672 13.762C81.7165 13.762 81.3152 13.6407 81.0632 13.398C80.8205 13.1553 80.6992 12.8753 80.6992 12.558C80.6992 12.3153 80.7365 12.082 80.8112 11.858C80.8859 11.634 80.9232 11.41 80.9232 11.186C80.9232 10.99 80.8719 10.836 80.7692 10.724C80.6759 10.612 80.5405 10.556 80.3632 10.556C80.0832 10.556 79.7799 10.71 79.4532 11.018C79.1265 11.326 78.7812 11.8253 78.4172 12.516C78.0625 13.1973 77.6985 14.1027 77.3252 15.232C77.1012 15.8947 76.9379 16.4313 76.8352 16.842C76.7419 17.2527 76.6952 17.6213 76.6952 17.948C76.6952 18.2467 76.7605 18.4707 76.8912 18.62C77.0219 18.76 77.1525 18.9 77.2832 19.04C77.4139 19.1707 77.4792 19.3807 77.4792 19.67C77.4792 19.978 77.3159 20.2627 76.9892 20.524C76.6719 20.7853 76.1959 20.9907 75.5612 21.14C74.9265 21.2893 74.1379 21.364 73.1952 21.364C72.5699 21.364 72.1125 21.2427 71.8232 21C71.5339 20.748 71.3845 20.3887 71.3752 19.922C71.3752 19.446 71.4965 18.8767 71.7392 18.214L73.7412 12.488C73.9745 11.816 74.0585 11.3493 73.9932 11.088C73.9279 10.8267 73.7879 10.696 73.5732 10.696C73.4519 10.696 73.3212 10.7333 73.1812 10.808C73.0412 10.8733 72.8639 11.0087 72.6492 11.214C72.4719 11.3633 72.3225 11.4567 72.2012 11.494C72.0799 11.522 71.9585 11.5127 71.8372 11.466ZM97.8912 16.548C97.7139 17.2573 97.6532 17.7427 97.7092 18.004C97.7745 18.2653 97.9099 18.396 98.1152 18.396C98.2459 18.396 98.3765 18.3587 98.5072 18.284C98.6379 18.2093 98.8059 18.0787 99.0112 17.892C99.1979 17.7333 99.3472 17.6353 99.4592 17.598C99.5805 17.5607 99.7019 17.5747 99.8232 17.64C99.9632 17.7053 100.038 17.8407 100.047 18.046C100.057 18.2513 99.9772 18.508 99.8092 18.816C99.4172 19.5813 98.8245 20.1973 98.0312 20.664C97.2379 21.1307 96.3885 21.364 95.4832 21.364C94.7459 21.364 94.2139 21.182 93.8872 20.818C93.5699 20.454 93.4112 19.9547 93.4112 19.32C93.4112 19.096 93.4205 18.858 93.4392 18.606C93.4672 18.3447 93.5092 18.0647 93.5652 17.766C93.6212 17.4673 93.6912 17.1407 93.7752 16.786C93.8592 16.422 93.9619 16.03 94.0832 15.61L94.4192 16.422C94.0832 17.4487 93.6072 18.3307 92.9912 19.068C92.3752 19.8053 91.6659 20.3747 90.8632 20.776C90.0605 21.168 89.2159 21.364 88.3292 21.364C87.1439 21.364 86.2339 20.986 85.5992 20.23C84.9645 19.474 84.7359 18.326 84.9132 16.786C85.0065 15.8807 85.2352 14.9893 85.5992 14.112C85.9725 13.2253 86.4672 12.3947 87.0832 11.62C87.6992 10.836 88.4319 10.15 89.2812 9.562C90.1305 8.96467 91.0779 8.498 92.1232 8.162C93.1779 7.81667 94.3212 7.644 95.5532 7.644C96.6732 7.644 97.6019 7.72333 98.3392 7.882C99.0859 8.03133 99.6365 8.23667 99.9912 8.498C100.355 8.75 100.519 9.03 100.481 9.338C100.444 9.60867 100.346 9.80467 100.187 9.926C100.038 10.0473 99.8792 10.1687 99.7112 10.29C99.5432 10.4113 99.4219 10.612 99.3472 10.892L97.8912 16.548ZM89.7572 16.758C89.6732 17.5513 89.7152 18.102 89.8832 18.41C90.0512 18.718 90.2845 18.872 90.5832 18.872C90.8912 18.872 91.2132 18.746 91.5492 18.494C91.8852 18.242 92.2212 17.8827 92.5572 17.416C92.9025 16.94 93.2292 16.3847 93.5372 15.75C93.8545 15.106 94.1392 14.3967 94.3912 13.622C94.6432 12.838 94.8439 12.0167 94.9932 11.158C95.1145 10.5047 95.1192 10.0287 95.0072 9.73C94.9045 9.43133 94.6899 9.282 94.3632 9.282C93.9525 9.282 93.5419 9.43133 93.1312 9.73C92.7205 10.0193 92.3285 10.4207 91.9552 10.934C91.5819 11.4473 91.2412 12.026 90.9332 12.67C90.6252 13.314 90.3685 13.986 90.1632 14.686C89.9579 15.386 89.8225 16.0767 89.7572 16.758ZM113.94 20.65C113.585 22.2367 112.983 23.5853 112.134 24.696C111.284 25.8067 110.192 26.6513 108.858 27.23C107.523 27.8087 105.946 28.098 104.126 28.098C102.688 28.098 101.592 27.846 100.836 27.342C100.07 26.838 99.6876 26.18 99.6876 25.368C99.6876 24.836 99.8742 24.374 100.248 23.982C100.612 23.5993 101.111 23.408 101.746 23.408C102.231 23.408 102.67 23.5527 103.062 23.842C103.463 24.1313 103.836 24.4673 104.182 24.85C104.527 25.2327 104.863 25.5687 105.19 25.858C105.526 26.1473 105.871 26.292 106.226 26.292C106.59 26.292 106.921 26.1987 107.22 26.012C107.528 25.8347 107.803 25.5453 108.046 25.144C108.288 24.7427 108.494 24.206 108.662 23.534L110.524 16.198L111.112 16.548C110.785 17.5467 110.318 18.41 109.712 19.138C109.105 19.8567 108.405 20.4073 107.612 20.79C106.818 21.1727 105.974 21.364 105.078 21.364C104.303 21.364 103.636 21.2007 103.076 20.874C102.525 20.538 102.124 20.0387 101.872 19.376C101.62 18.704 101.545 17.864 101.648 16.856C101.741 15.9413 101.97 15.0407 102.334 14.154C102.698 13.258 103.183 12.418 103.79 11.634C104.406 10.85 105.138 10.1593 105.988 9.562C106.837 8.96467 107.789 8.498 108.844 8.162C109.898 7.81667 111.051 7.644 112.302 7.644C113.412 7.644 114.336 7.71867 115.074 7.868C115.82 8.01733 116.371 8.22267 116.726 8.484C117.08 8.736 117.239 9.01133 117.202 9.31C117.164 9.59 117.066 9.79067 116.908 9.912C116.749 10.024 116.586 10.1407 116.418 10.262C116.25 10.374 116.138 10.5747 116.082 10.864L113.94 20.65ZM106.492 16.744C106.445 17.276 106.454 17.696 106.52 18.004C106.594 18.312 106.706 18.5313 106.856 18.662C107.005 18.7927 107.178 18.858 107.374 18.858C107.691 18.858 108.022 18.7227 108.368 18.452C108.713 18.1813 109.054 17.8033 109.39 17.318C109.735 16.8327 110.062 16.268 110.37 15.624C110.678 14.98 110.944 14.28 111.168 13.524C111.401 12.7587 111.574 11.9747 111.686 11.172C111.798 10.5187 111.798 10.0427 111.686 9.744C111.583 9.436 111.373 9.282 111.056 9.282C110.654 9.282 110.248 9.43133 109.838 9.73C109.436 10.0193 109.049 10.4207 108.676 10.934C108.302 11.438 107.962 12.012 107.654 12.656C107.346 13.3 107.089 13.972 106.884 14.672C106.688 15.372 106.557 16.0627 106.492 16.744ZM118.486 11.466C118.346 11.3913 118.271 11.256 118.262 11.06C118.252 10.8547 118.332 10.6027 118.5 10.304C118.78 9.772 119.153 9.31 119.62 8.918C120.096 8.51667 120.637 8.20867 121.244 7.994C121.85 7.77 122.504 7.658 123.204 7.658C123.829 7.658 124.3 7.798 124.618 8.078C124.935 8.34867 125.094 8.75 125.094 9.282C125.094 9.646 125.024 10.052 124.884 10.5C124.744 10.948 124.576 11.4147 124.38 11.9C124.193 12.3853 124.016 12.866 123.848 13.342C123.689 13.818 123.591 14.266 123.554 14.686L123.302 14.602C123.638 13.37 124.039 12.3153 124.506 11.438C124.982 10.5513 125.49 9.83267 126.032 9.282C126.582 8.722 127.142 8.31133 127.712 8.05C128.281 7.78867 128.827 7.658 129.35 7.658C130.18 7.658 130.81 7.91467 131.24 8.428C131.669 8.932 131.865 9.59933 131.828 10.43C131.8 11.13 131.646 11.732 131.366 12.236C131.086 12.7307 130.731 13.1087 130.302 13.37C129.872 13.6313 129.41 13.762 128.916 13.762C128.365 13.762 127.964 13.6407 127.712 13.398C127.469 13.1553 127.348 12.8753 127.348 12.558C127.348 12.3153 127.385 12.082 127.46 11.858C127.534 11.634 127.572 11.41 127.572 11.186C127.572 10.99 127.52 10.836 127.418 10.724C127.324 10.612 127.189 10.556 127.012 10.556C126.732 10.556 126.428 10.71 126.102 11.018C125.775 11.326 125.43 11.8253 125.066 12.516C124.711 13.1973 124.347 14.1027 123.974 15.232C123.75 15.8947 123.586 16.4313 123.484 16.842C123.39 17.2527 123.344 17.6213 123.344 17.948C123.344 18.2467 123.409 18.4707 123.54 18.62C123.67 18.76 123.801 18.9 123.932 19.04C124.062 19.1707 124.128 19.3807 124.128 19.67C124.128 19.978 123.964 20.2627 123.638 20.524C123.32 20.7853 122.844 20.9907 122.21 21.14C121.575 21.2893 120.786 21.364 119.844 21.364C119.218 21.364 118.761 21.2427 118.472 21C118.182 20.748 118.033 20.3887 118.024 19.922C118.024 19.446 118.145 18.8767 118.388 18.214L120.39 12.488C120.623 11.816 120.707 11.3493 120.642 11.088C120.576 10.8267 120.436 10.696 120.222 10.696C120.1 10.696 119.97 10.7333 119.83 10.808C119.69 10.8733 119.512 11.0087 119.298 11.214C119.12 11.3633 118.971 11.4567 118.85 11.494C118.728 11.522 118.607 11.5127 118.486 11.466ZM144.54 16.548C144.362 17.2573 144.302 17.7427 144.358 18.004C144.423 18.2653 144.558 18.396 144.764 18.396C144.894 18.396 145.025 18.3587 145.156 18.284C145.286 18.2093 145.454 18.0787 145.66 17.892C145.846 17.7333 145.996 17.6353 146.108 17.598C146.229 17.5607 146.35 17.5747 146.472 17.64C146.612 17.7053 146.686 17.8407 146.696 18.046C146.705 18.2513 146.626 18.508 146.458 18.816C146.066 19.5813 145.473 20.1973 144.68 20.664C143.886 21.1307 143.037 21.364 142.132 21.364C141.394 21.364 140.862 21.182 140.536 20.818C140.218 20.454 140.06 19.9547 140.06 19.32C140.06 19.096 140.069 18.858 140.088 18.606C140.116 18.3447 140.158 18.0647 140.214 17.766C140.27 17.4673 140.34 17.1407 140.424 16.786C140.508 16.422 140.61 16.03 140.732 15.61L141.068 16.422C140.732 17.4487 140.256 18.3307 139.64 19.068C139.024 19.8053 138.314 20.3747 137.512 20.776C136.709 21.168 135.864 21.364 134.978 21.364C133.792 21.364 132.882 20.986 132.248 20.23C131.613 19.474 131.384 18.326 131.562 16.786C131.655 15.8807 131.884 14.9893 132.248 14.112C132.621 13.2253 133.116 12.3947 133.732 11.62C134.348 10.836 135.08 10.15 135.93 9.562C136.779 8.96467 137.726 8.498 138.772 8.162C139.826 7.81667 140.97 7.644 142.202 7.644C143.322 7.644 144.25 7.72333 144.988 7.882C145.734 8.03133 146.285 8.23667 146.64 8.498C147.004 8.75 147.167 9.03 147.13 9.338C147.092 9.60867 146.994 9.80467 146.836 9.926C146.686 10.0473 146.528 10.1687 146.36 10.29C146.192 10.4113 146.07 10.612 145.996 10.892L144.54 16.548ZM136.406 16.758C136.322 17.5513 136.364 18.102 136.532 18.41C136.7 18.718 136.933 18.872 137.232 18.872C137.54 18.872 137.862 18.746 138.198 18.494C138.534 18.242 138.87 17.8827 139.206 17.416C139.551 16.94 139.878 16.3847 140.186 15.75C140.503 15.106 140.788 14.3967 141.04 13.622C141.292 12.838 141.492 12.0167 141.642 11.158C141.763 10.5047 141.768 10.0287 141.656 9.73C141.553 9.43133 141.338 9.282 141.012 9.282C140.601 9.282 140.19 9.43133 139.78 9.73C139.369 10.0193 138.977 10.4207 138.604 10.934C138.23 11.4473 137.89 12.026 137.582 12.67C137.274 13.314 137.017 13.986 136.812 14.686C136.606 15.386 136.471 16.0767 136.406 16.758ZM149.125 11.466C148.976 11.3913 148.897 11.256 148.887 11.06C148.887 10.8547 148.967 10.6027 149.125 10.304C149.555 9.50133 150.189 8.862 151.029 8.386C151.869 7.90067 152.835 7.658 153.927 7.658C154.609 7.658 155.131 7.798 155.495 8.078C155.859 8.34867 156.041 8.75 156.041 9.282C156.041 9.59933 155.971 9.95867 155.831 10.36C155.691 10.752 155.519 11.1767 155.313 11.634C155.117 12.0913 154.917 12.5767 154.711 13.09C154.506 13.6033 154.338 14.1353 154.207 14.686L153.885 14.434C154.399 13.146 154.973 12.068 155.607 11.2C156.251 10.332 156.923 9.63667 157.623 9.114C158.323 8.59133 159.014 8.218 159.695 7.994C160.386 7.77 161.035 7.658 161.641 7.658C162.481 7.658 163.097 7.84 163.489 8.204C163.891 8.568 164.101 9.07667 164.119 9.73C164.147 10.374 164.007 11.13 163.699 11.998L162.131 16.548C161.898 17.2293 161.814 17.7053 161.879 17.976C161.945 18.2373 162.08 18.368 162.285 18.368C162.416 18.368 162.547 18.3307 162.677 18.256C162.817 18.172 162.99 18.0367 163.195 17.85C163.382 17.6913 163.531 17.598 163.643 17.57C163.765 17.5327 163.886 17.542 164.007 17.598C164.147 17.6727 164.222 17.8127 164.231 18.018C164.241 18.214 164.161 18.466 163.993 18.774C163.592 19.5487 162.981 20.174 162.159 20.65C161.347 21.126 160.391 21.364 159.289 21.364C158.487 21.364 157.894 21.2053 157.511 20.888C157.129 20.5707 156.923 20.1227 156.895 19.544C156.877 18.956 157.007 18.2653 157.287 17.472L158.855 12.922C159.135 12.1847 159.238 11.6527 159.163 11.326C159.089 10.9993 158.846 10.836 158.435 10.836C158.146 10.836 157.829 10.934 157.483 11.13C157.147 11.326 156.802 11.6107 156.447 11.984C156.093 12.348 155.752 12.8053 155.425 13.356C155.099 13.8973 154.805 14.518 154.543 15.218C154.366 15.7127 154.217 16.142 154.095 16.506C153.974 16.8607 153.885 17.164 153.829 17.416C153.773 17.668 153.745 17.8873 153.745 18.074C153.745 18.354 153.792 18.606 153.885 18.83C153.988 19.0447 154.039 19.2967 154.039 19.586C154.039 20.1273 153.703 20.5613 153.031 20.888C152.359 21.2053 151.426 21.364 150.231 21.364C149.373 21.364 148.85 21.0933 148.663 20.552C148.486 20.0013 148.579 19.2267 148.943 18.228L151.001 12.488C151.253 11.816 151.342 11.3493 151.267 11.088C151.202 10.8267 151.067 10.696 150.861 10.696C150.731 10.696 150.595 10.7333 150.455 10.808C150.325 10.8733 150.152 11.0087 149.937 11.214C149.751 11.3633 149.597 11.4567 149.475 11.494C149.354 11.522 149.237 11.5127 149.125 11.466ZM174.11 9.24C173.709 9.24 173.303 9.42667 172.892 9.8C172.481 10.164 172.117 10.6913 171.8 11.382C171.483 12.0727 171.254 12.9033 171.114 13.874C170.881 15.47 170.974 16.646 171.394 17.402C171.823 18.158 172.486 18.536 173.382 18.536C173.765 18.536 174.129 18.466 174.474 18.326C174.829 18.1767 175.155 17.962 175.454 17.682C175.762 17.402 176.042 17.066 176.294 16.674C176.546 16.3753 176.747 16.1513 176.896 16.002C177.055 15.8433 177.241 15.7687 177.456 15.778C177.671 15.7873 177.829 15.904 177.932 16.128C178.044 16.3427 178.044 16.66 177.932 17.08C177.764 17.668 177.493 18.2233 177.12 18.746C176.747 19.2593 176.275 19.7167 175.706 20.118C175.146 20.51 174.483 20.8133 173.718 21.028C172.962 21.252 172.113 21.364 171.17 21.364C169.285 21.364 167.889 20.804 166.984 19.684C166.088 18.5547 165.78 16.982 166.06 14.966C166.2 13.9393 166.503 12.9827 166.97 12.096C167.437 11.2093 168.043 10.4347 168.79 9.772C169.546 9.1 170.419 8.57733 171.408 8.204C172.397 7.82133 173.485 7.63 174.67 7.63C175.706 7.63 176.555 7.80733 177.218 8.162C177.89 8.50733 178.385 8.95533 178.702 9.506C179.019 10.0567 179.155 10.6493 179.108 11.284C179.071 12.0493 178.795 12.6373 178.282 13.048C177.778 13.4587 177.227 13.664 176.63 13.664C176.051 13.664 175.608 13.5287 175.3 13.258C174.992 12.9873 174.843 12.642 174.852 12.222C174.861 11.886 174.908 11.5873 174.992 11.326C175.076 11.0553 175.123 10.7473 175.132 10.402C175.141 10.066 175.057 9.79067 174.88 9.576C174.703 9.352 174.446 9.24 174.11 9.24ZM182.11 15.148C182.11 15.148 182.269 15.0967 182.586 14.994C182.913 14.8913 183.333 14.7653 183.846 14.616C184.369 14.4573 184.929 14.2847 185.526 14.098C186.123 13.9113 186.707 13.734 187.276 13.566C187.845 13.3887 188.331 13.2347 188.732 13.104L188.256 13.636C188.359 13.3093 188.443 12.922 188.508 12.474C188.573 12.026 188.611 11.522 188.62 10.962C188.62 10.4207 188.527 9.99133 188.34 9.674C188.163 9.35667 187.901 9.198 187.556 9.198C187.239 9.198 186.921 9.324 186.604 9.576C186.287 9.828 185.988 10.1873 185.708 10.654C185.428 11.1207 185.19 11.676 184.994 12.32C184.798 12.964 184.663 13.6827 184.588 14.476C184.467 15.82 184.639 16.842 185.106 17.542C185.573 18.2327 186.291 18.578 187.262 18.578C187.775 18.578 188.256 18.4893 188.704 18.312C189.152 18.1253 189.567 17.8687 189.95 17.542C190.333 17.206 190.669 16.8093 190.958 16.352C191.182 16.0813 191.369 15.8993 191.518 15.806C191.667 15.7033 191.835 15.6567 192.022 15.666C192.237 15.6753 192.405 15.7733 192.526 15.96C192.647 16.1467 192.657 16.4407 192.554 16.842C192.349 17.6353 191.938 18.3773 191.322 19.068C190.706 19.7587 189.894 20.314 188.886 20.734C187.878 21.154 186.66 21.364 185.232 21.364C183.869 21.364 182.763 21.1353 181.914 20.678C181.074 20.2113 180.477 19.5533 180.122 18.704C179.767 17.8547 179.641 16.842 179.744 15.666C179.847 14.546 180.131 13.5007 180.598 12.53C181.074 11.5593 181.695 10.71 182.46 9.982C183.235 9.24467 184.121 8.67067 185.12 8.26C186.128 7.84933 187.215 7.644 188.382 7.644C189.306 7.644 190.067 7.80267 190.664 8.12C191.261 8.43733 191.714 8.87133 192.022 9.422C192.339 9.96333 192.531 10.5747 192.596 11.256C192.624 11.4427 192.671 11.606 192.736 11.746C192.811 11.886 192.913 11.9747 193.044 12.012C193.175 12.04 193.273 12.0913 193.338 12.166C193.413 12.2407 193.45 12.348 193.45 12.488C193.45 12.6747 193.375 12.852 193.226 13.02C193.077 13.1787 192.797 13.3187 192.386 13.44C191.985 13.552 191.462 13.7013 190.818 13.888C190.174 14.0747 189.469 14.28 188.704 14.504C187.939 14.728 187.173 14.952 186.408 15.176C185.652 15.4 184.957 15.6053 184.322 15.792C183.697 15.9693 183.193 16.1187 182.81 16.24C182.427 16.352 182.236 16.408 182.236 16.408L182.11 15.148Z" fill="#C4006E"/>
</svg>
