<svg width="16" height="17" viewBox="0 0 16 17" fill="none" xmlns="http://www.w3.org/2000/svg">
<path d="M8.0013 8.5026C9.84225 8.5026 11.3346 7.01022 11.3346 5.16927C11.3346 3.32832 9.84225 1.83594 8.0013 1.83594C6.16035 1.83594 4.66797 3.32832 4.66797 5.16927C4.66797 7.01022 6.16035 8.5026 8.0013 8.5026Z" stroke="black" stroke-width="1.66667"/>
<path d="M11.334 9.83594H11.5687C12.0561 9.83608 12.5266 10.0142 12.892 10.3368C13.2573 10.6594 13.4923 11.1043 13.5527 11.5879L13.8134 13.6706C13.8368 13.8582 13.8201 14.0487 13.7643 14.2293C13.7085 14.41 13.6149 14.5767 13.4898 14.7185C13.3646 14.8602 13.2108 14.9737 13.0384 15.0514C12.866 15.1291 12.6791 15.1693 12.49 15.1693H3.51136C3.32228 15.1693 3.13535 15.1291 2.96299 15.0514C2.79062 14.9737 2.63676 14.8602 2.51161 14.7185C2.38646 14.5767 2.29288 14.41 2.23709 14.2293C2.18131 14.0487 2.16458 13.8582 2.18802 13.6706L2.44802 11.5879C2.50849 11.1041 2.74364 10.659 3.10925 10.3364C3.47486 10.0137 3.94574 9.83575 4.43336 9.83594H4.66736" stroke="black" stroke-width="1.66667" stroke-linecap="round" stroke-linejoin="round"/>
</svg>
